<svg xmlns="http://www.w3.org/2000/svg" version="1.1" width="1024" height="1024"><rect id="backgroundrect" width="100%" height="100%" x="0" y="0" fill="none" stroke="none"/>
<title>plus</title>


<g class="currentLayer" style=""><title>Layer 1</title><g id="icomoon-ignore">
</g><path fill="#000" d="M562.24 579.776c-51.136-41.792-83.776-105.344-83.776-176.544 0-35.776 8.96-69.184 23.648-99.328l-35.136-35.104-213.44 213.472c39.68 31.232 35.68 61.76-10.752 91.52l285.152 285.12h139.744c17.984 0 32.576 14.592 32.576 32.576v32.576h-152.576l-0.352 0.352-0.352-0.352h-237.376v-32.544c0-17.984 14.592-32.576 32.576-32.576h139.744l-268.992-268.96c-53.152 22.784-79.392 0.768-78.272-66.88 1.216-71.968 31.712-91.168 90.848-58.784l218.528-218.528-21.632-21.6c-12.704-12.672-12.704-33.312 0-46.016l69.056-69.056c12.704-12.704 33.344-12.704 46.048 0l83.2 83.264c26.496-10.784 55.328-16.96 85.696-16.96 74.944 0 141.504 32.16 183.008 88.064 1.408 0.352-325.984 316.8-327.168 316.288zM814.176 376.128c0 0 54.944 69.152 0 124.096s-123.424-0.672-123.424-0.672l123.424-123.424z" id="svg_1"/><path fill="none" fill-opacity="1" stroke="#222222" stroke-opacity="1" stroke-width="30" stroke-dasharray="none" stroke-linejoin="round" stroke-linecap="butt" stroke-dashoffset="" fill-rule="nonzero" opacity="1" marker-start="" marker-mid="" marker-end="" d="M669.7333048502599,609.0666381835932L704.7333048502599,690.0666381835932" id="svg_3"/><path fill="none" fill-opacity="1" stroke="#222222" stroke-opacity="1" stroke-width="30" stroke-dasharray="none" stroke-linejoin="round" stroke-linecap="butt" stroke-dashoffset="" fill-rule="nonzero" opacity="1" marker-start="" marker-mid="" marker-end="" d="M779.7333048502599,570.0666381835932L829.7333048502599,652.0666381835932" id="svg_5"/><path fill="none" fill-opacity="1" stroke="#222222" stroke-opacity="1" stroke-width="30" stroke-dasharray="none" stroke-linejoin="round" stroke-linecap="butt" stroke-dashoffset="" fill-rule="nonzero" opacity="1" marker-start="" marker-mid="" marker-end="" d="M865.7333048502599,502.0666381835932L937.7333048502599,553.0666381835932" id="svg_7"/><path fill="none" fill-opacity="1" stroke="#222222" stroke-opacity="1" stroke-width="30" stroke-dasharray="none" stroke-linejoin="round" stroke-linecap="butt" stroke-dashoffset="" fill-rule="nonzero" opacity="1" marker-start="" marker-mid="" marker-end="" d="M885.7333048502599,339.0666381835932L964.7333048502599,317.0666381835932" id="svg_2"/><path fill="none" fill-opacity="1" stroke="#222222" stroke-opacity="1" stroke-width="30" stroke-dasharray="none" stroke-linejoin="round" stroke-linecap="butt" stroke-dashoffset="" fill-rule="nonzero" opacity="1" marker-start="" marker-mid="" marker-end="" d="M895.7333048502599,416.0666381835932L974.7333048502599,422.0666381835932" id="svg_6"/></g></svg>